<?xml version="1.0" standalone="no"?>
<!DOCTYPE svg PUBLIC "-//W3C//DTD SVG 20010904//EN"
 "http://www.w3.org/TR/2001/REC-SVG-20010904/DTD/svg10.dtd">
<svg version="1.0" xmlns="http://www.w3.org/2000/svg"
 width="162.000000pt" height="162.000000pt" viewBox="0 0 162.000000 162.000000"
 preserveAspectRatio="xMidYMid meet">
<metadata>
Created by potrace 1.14, written by Peter Selinger 2001-2017
</metadata>
<g transform="translate(0.000000,162.000000) scale(0.100000,-0.100000)"
fill="#000000" stroke="none">
<path d="M1031 1423 c-3 -96 -9 -131 -37 -227 -14 -50 -28 -101 -30 -113 -2
-12 -9 -34 -14 -49 -10 -25 -5 -40 20 -64 27 -26 100 -120 100 -129 0 -6 4
-11 9 -11 5 0 28 -39 51 -87 58 -121 60 -126 74 -210 12 -68 17 -68 47 -1 16
36 31 83 35 104 3 22 8 42 10 46 6 10 6 137 -1 193 -9 77 -21 137 -35 170 -5
11 -18 45 -29 75 -11 30 -31 79 -45 107 -14 29 -27 58 -28 65 -2 7 -6 15 -9
18 -4 3 -15 21 -26 40 -35 64 -78 130 -84 130 -3 0 -7 -26 -8 -57z"/>
<path d="M212 1354 c32 -50 86 -148 86 -154 0 -3 7 -22 16 -44 9 -21 16 -44
16 -51 0 -6 3 -15 7 -19 4 -3 9 -17 11 -29 5 -30 10 -52 12 -52 1 0 3 -7 5
-15 1 -8 8 -35 15 -60 7 -25 13 -49 14 -55 1 -5 11 -37 21 -70 70 -230 131
-351 225 -445 51 -52 260 -198 260 -183 0 5 4 3 8 -3 12 -18 212 -114 212
-101 0 1 -5 18 -11 37 -5 19 -12 46 -15 60 -26 132 -184 431 -279 526 l-36 35
31 -4 c81 -13 184 -92 246 -187 16 -25 31 -47 34 -50 3 -3 13 -23 22 -45 8
-22 20 -51 26 -65 l11 -25 1 30 c2 27 0 71 -5 117 0 10 -4 21 -8 24 -4 4 -7
17 -7 29 0 13 -6 38 -14 56 -20 50 -27 74 -26 78 1 2 -2 7 -7 10 -5 3 -22 29
-38 56 -49 85 -158 208 -273 308 -44 38 -238 167 -251 167 -6 0 -11 5 -11 10
0 6 -9 10 -19 10 -11 0 -21 3 -23 8 -5 11 -165 92 -182 92 -9 0 -16 4 -16 9 0
5 -10 11 -22 14 -13 2 -31 8 -42 12 -16 7 -15 3 6 -31z m486 -503 c7 -1 17
-13 23 -28 12 -31 -5 -82 -27 -84 -8 -1 -20 -2 -26 -3 -7 -1 -23 2 -35 7 -58
25 -29 124 32 112 11 -2 26 -4 33 -4z"/>
<path d="M1510 1275 c-14 -30 -28 -55 -32 -55 -5 0 -8 -7 -8 -15 0 -7 -8 -19
-17 -24 -10 -6 -14 -11 -10 -11 7 0 -7 -17 -96 -113 -15 -16 -25 -37 -23 -46
20 -69 26 -109 29 -190 3 -92 -9 -211 -22 -221 -4 -3 -7 -14 -7 -25 -1 -22
-35 -98 -46 -103 -5 -2 -8 -9 -8 -15 0 -7 -18 -40 -40 -75 -31 -49 -36 -62
-23 -60 10 2 27 11 37 20 10 10 23 15 27 12 4 -2 13 5 19 16 6 11 14 19 18 17
13 -4 85 77 124 141 21 35 50 98 64 140 26 75 29 87 40 146 2 16 7 33 9 37 7
11 19 193 18 279 -1 88 -13 200 -22 200 -3 0 -17 -25 -31 -55z"/>
</g>
</svg>
